# 3ds Max Wavefront OBJ Exporter v0.97b - (c)2007 guruware
# File Created: 16.06.2013 18:07:01

#
# object Box001
#

v  -31.2294 -10.8674 30.1223
v  -31.2294 -10.8674 -20.2252
v  16.9936 -10.8674 -20.2252
v  16.9936 -10.8674 30.1223
v  -31.2294 21.8890 30.1223
v  16.9936 21.8890 30.1223
v  16.9936 21.8890 -20.2252
v  -31.2294 21.8890 -20.2252
# 8 vertices

vn 0.0000 -1.0000 -0.0000
vn 0.0000 1.0000 -0.0000
vn 0.0000 0.0000 1.0000
vn 1.0000 0.0000 -0.0000
vn 0.0000 0.0000 -1.0000
vn -1.0000 0.0000 -0.0000
# 6 vertex normals

vt 0.1890 0.6133 0.0000
vt 0.1890 0.7290 0.0000
vt 0.0733 0.7290 0.0000
vt 0.0733 0.6133 0.0000
vt 0.0730 0.8024 0.0000
vt 0.1887 0.8024 0.0000
vt 0.1887 0.9181 0.0000
vt 0.0730 0.9181 0.0000
vt 0.2540 0.7993 0.0000
vt 0.3697 0.7993 0.0000
vt 0.3697 0.9150 0.0000
vt 0.2540 0.9150 0.0000
vt 0.4426 0.7869 0.0000
vt 0.5583 0.7869 0.0000
vt 0.5583 0.9026 0.0000
vt 0.4426 0.9026 0.0000
vt 0.6388 0.7890 0.0000
vt 0.7545 0.7890 0.0000
vt 0.7545 0.9047 0.0000
vt 0.6388 0.9047 0.0000
vt 0.8142 0.8010 0.0000
vt 0.9299 0.8010 0.0000
vt 0.9299 0.8763 0.0000
vt 0.8142 0.8763 0.0000
# 24 texture coords

g Box001
s 2
f 1/1/1 2/2/1 3/3/1 4/4/1 
s 4
f 5/5/2 6/6/2 7/7/2 8/8/2 
s 8
f 1/9/3 4/10/3 6/11/3 5/12/3 
s 16
f 4/13/4 3/14/4 7/15/4 6/16/4 
s 32
f 3/17/5 2/18/5 8/19/5 7/20/5 
s 64
f 2/21/6 1/22/6 5/23/6 8/24/6 
# 6 polygons

